<svg width="1440" height="872" viewBox="0 0 1440 872" fill="none" xmlns="http://www.w3.org/2000/svg">
<rect width="1440" height="872" fill="#FCDA28"/>
<g opacity="0.3">
<path d="M622.022 9.7561C662.976 171.185 604.896 276.966 396.499 375.83C188.102 474.695 66.5088 518.394 0 689.015V9.7561H622.022Z" fill="url(#paint0_linear_378_14)"/>
<path d="M1075.14 9.7561C1150.66 170.03 1139.14 354.395 971.462 512.634C832.32 643.954 724.166 718.607 653.894 872H1440V9.7561H1075.14Z" fill="url(#paint1_linear_378_14)"/>
<path opacity="0.5" d="M757.018 872C757.018 872 682.176 694.292 880.589 608.067C1079 521.843 1182.66 479.352 1222.35 339.064C1262.04 198.777 1318.46 149.336 1440 135.54V872H757.018Z" fill="url(#paint2_linear_378_14)"/>
<path opacity="0.5" d="M1440 727.643C1263.3 821.904 989.395 718.434 804.403 578.182C630.701 446.483 423.629 403.215 245.702 474.333C48.4416 553.159 0 759.339 0 759.339V872H1440V727.643Z" fill="url(#paint3_linear_378_14)"/>
<path opacity="0.5" d="M0 445.965C174.509 524.136 302.592 408.026 318.317 311.455C334.042 214.884 339.149 55.2653 541.382 9.7561H0V445.965Z" fill="url(#paint4_linear_378_14)"/>
<path opacity="0.5" d="M1440 299.039C1351.62 422.961 1177.56 440.326 1045.71 329.838C931.258 233.94 788.179 124.262 595.142 135.54C339.36 150.492 223.949 131.143 154.829 9.7561H1440V299.039Z" fill="url(#paint5_linear_378_14)"/>
<path opacity="0.5" d="M0 195.052C69.0624 354.412 304.013 344.807 403.334 233.232C491.501 134.178 580.742 66.5607 751.622 107.103C922.502 147.646 1005.06 184.723 1100.1 145.059C1195.14 105.396 1195.14 9.7561 1195.14 9.7561H0V195.052Z" fill="url(#paint6_linear_378_14)"/>
<path opacity="0.5" d="M0 563.558C0 563.558 176.851 446.775 345.542 545.985C526.022 652.128 524.102 780.499 737.242 871.983H0V563.558Z" fill="url(#paint7_linear_378_14)"/>
</g>
<defs>
<linearGradient id="paint0_linear_378_14" x1="120.257" y1="9.41483" x2="325.517" y2="462.888" gradientUnits="userSpaceOnUse">
<stop stop-color="#F2EA00"/>
<stop offset="1" stop-color="#F2B100"/>
</linearGradient>
<linearGradient id="paint1_linear_378_14" x1="1419.96" y1="892.382" x2="1060.27" y2="352.676" gradientUnits="userSpaceOnUse">
<stop stop-color="#F2EA00"/>
<stop offset="1" stop-color="#F2B100"/>
</linearGradient>
<linearGradient id="paint2_linear_378_14" x1="1043.14" y1="962.115" x2="1201.33" y2="375.923" gradientUnits="userSpaceOnUse">
<stop stop-color="#F24500"/>
<stop offset="0.3401" stop-color="#F28000"/>
<stop offset="0.7907" stop-color="#F2C900"/>
<stop offset="1" stop-color="#F2E600"/>
</linearGradient>
<linearGradient id="paint3_linear_378_14" x1="587.361" y1="311.129" x2="689.687" y2="778.468" gradientUnits="userSpaceOnUse">
<stop stop-color="#F24500"/>
<stop offset="0.3401" stop-color="#F28000"/>
<stop offset="0.7907" stop-color="#F2C900"/>
<stop offset="1" stop-color="#F2E600"/>
</linearGradient>
<linearGradient id="paint4_linear_378_14" x1="104.89" y1="75.2423" x2="426.389" y2="442.076" gradientUnits="userSpaceOnUse">
<stop stop-color="#F24500"/>
<stop offset="0.3401" stop-color="#F28000"/>
<stop offset="0.7907" stop-color="#F2C900"/>
<stop offset="1" stop-color="#F2E600"/>
</linearGradient>
<linearGradient id="paint5_linear_378_14" x1="676.619" y1="-92.8559" x2="1401.05" y2="733.723" gradientUnits="userSpaceOnUse">
<stop stop-color="#F24500"/>
<stop offset="0.3401" stop-color="#F28000"/>
<stop offset="0.7907" stop-color="#F2C900"/>
<stop offset="1" stop-color="#F2E600"/>
</linearGradient>
<linearGradient id="paint6_linear_378_14" x1="800.459" y1="354.055" x2="516.635" y2="-71.8065" gradientUnits="userSpaceOnUse">
<stop stop-color="#F25A00"/>
<stop offset="0.2506" stop-color="#F28000"/>
<stop offset="0.7625" stop-color="#F2C900"/>
<stop offset="1" stop-color="#F2E600"/>
</linearGradient>
<linearGradient id="paint7_linear_378_14" x1="502.233" y1="1033.72" x2="241.982" y2="643.227" gradientUnits="userSpaceOnUse">
<stop stop-color="#F24500"/>
<stop offset="0.3401" stop-color="#F28000"/>
<stop offset="0.7907" stop-color="#F2C900"/>
<stop offset="1" stop-color="#F2E600"/>
</linearGradient>
</defs>
</svg>
